# xmcd
#
# Track frame offsets: 
#        150
#        25406
#        43602
#        58820
#        72709
#        91275
#        108956
#        128766
#        156849
#        176539
#        201642
#        224469
#        247318
#        277303
#        297758
#        316870
#
# Disc length: 4358 seconds
#
# Revision: 0
# Processed by: cddbd v1.5.2PL0 Copyright (c) Steve Scherf et al.
# Submitted via: ExactAudioCopy v0.99pb5
#
DISCID=04110410
DTITLE=Isley Brothers - 3plus3 and Go For Your Guns [Remaster]
DYEAR=1900
DGENRE=R&B
TTITLE0=That Lady (part 1&2)
TTITLE1=Don't Let Me Be Lonely Tonight
TTITLE2=If You Were There
TTITLE3=You Walk Your Way
TTITLE4=Listen To The Music
TTITLE5=What It Comes Down To
TTITLE6=Sunshine (Go Away Today)
TTITLE7=Summer Breeze
TTITLE8=The Highways Of My Life
TTITLE9=The Pride (part 1&2)
TTITLE10=Footsteps In The Dark (part 1&2)
TTITLE11=Tell Me When You Need It Again
TTITLE12=Climbin' Up The Ladder (part  1&2)
TTITLE13=Voyage To Atlantis
TTITLE14=Livin' The Life
TTITLE15=Go For Your Guns
EXTD=
EXTT0=
EXTT1=
EXTT2=
EXTT3=
EXTT4=
EXTT5=
EXTT6=
EXTT7=
EXTT8=
EXTT9=
EXTT10=
EXTT11=
EXTT12=
EXTT13=
EXTT14=
EXTT15=
PLAYORDER=
